# xmcd
#
# Track frame offsets: 
#        150
#        35157
#        58057
#        77177
#        95577
#        122602
#        141595
#        160047
#
# Disc length: 2441 seconds
#
# Revision: 1
# Processed by: cddbd v1.5.2PL0 Copyright (c) Steve Scherf et al.
# Submitted via: ExactAudioCopy v1.0b3
#
DISCID=6f098708
DTITLE=Joe Gordon - Lookin' Good!
DYEAR=1961
DGENRE=Jazz
TTITLE0=Terra Firma Irma
TTITLE1=A Song For Richard
TTITLE2=Non-Viennese Waltz Blues
TTITLE3=You're The Only Girl In The Next World For Me
TTITLE4=Co-op Blues
TTITLE5=Mariana
TTITLE6=Heleen
TTITLE7=Diminishing
EXTD=YEAR: 1961
EXTT0=
EXTT1=
EXTT2=
EXTT3=
EXTT4=
EXTT5=
EXTT6=
EXTT7=
PLAYORDER=
